<svg id="_x33_0" enable-background="new 0 0 64 64" height="512" viewBox="0 0 64 64" width="512" xmlns="http://www.w3.org/2000/svg"><g><path d="m46 45c-3.86 0-7 3.14-7 7s3.14 7 7 7 7-3.14 7-7-3.14-7-7-7zm0 12c-2.757 0-5-2.243-5-5s2.243-5 5-5 5 2.243 5 5-2.243 5-5 5z"/><path d="m62.002 50.06c-2.474-4.124-6.464-7.089-11.002-8.363v-1.697c0-1.302-.839-2.402-2-2.816v-1.184s0 0 0-.001c1.248-.937 2-2.414 2-3.999 0-2.414-1.721-4.434-4-4.899v-26.101h-2v26.101c-.543.111-1.044.327-1.508.599-.326-1.622-.492-3.273-.492-4.926v-5.228c0-9.123-7.423-16.546-16.546-16.546-3.744 0-7.414 1.288-10.337 3.626l-.475.38c-5.901.189-10.642 5.048-10.642 10.994v6.773c0 2.697-.433 5.361-1.314 8.005-.456 1.367-.686 2.792-.686 4.302 0 2.764.808 5.436 2.336 7.727l1.03 1.545c.415.622.634 1.347.634 2.157 0 1.247-.596 2.438-1.594 3.187l-.163.122c-1.425 1.068-2.243 2.689-2.243 4.447 0 .29.031.579.076.865-1.303 1.615-2.076 3.661-2.076 5.87v2h45c6.518 0 12.649-3.472 16.002-9.06l1.164-1.94zm-16.002-9.06c-1.013 0-2.015.093-3 .256v-1.256c0-.551.449-1 1-1h4c.551 0 1 .449 1 1v1.256c-.985-.163-1.987-.256-3-.256zm-14.288 10.089c1.343-2.239 3.189-4.093 5.338-5.462-1.285 1.801-2.05 3.997-2.05 6.373s.765 4.572 2.051 6.373c-2.149-1.369-3.995-3.223-5.338-5.462l-.547-.911zm15.288-14.089h-2v-1c0-.551.449-1 1-1s1 .449 1 1zm-2-7.816v1.816h2v-1.816c1.161.414 2 1.514 2 2.816 0 .752-.297 1.451-.785 1.994-.549-.606-1.334-.994-2.215-.994s-1.666.388-2.215.994c-.488-.543-.785-1.242-.785-1.994 0-1.302.839-2.402 2-2.816zm-38.556 22.233.163-.122c1.498-1.124 2.393-2.913 2.393-4.846 0-1.146-.335-2.255-.97-3.207l-1.03-1.544c-1.309-1.962-2-4.251-2-6.685 0-1.229.196-2.441.612-3.688.921-2.762 1.388-5.64 1.388-8.552v-6.773c0-4.962 4.038-9 9-9h.351l1.016-.813c2.569-2.055 5.796-3.187 9.087-3.187 8.021 0 14.546 6.525 14.546 14.546v5.228c0 2.195.279 4.384.809 6.517-.507.782-.809 1.71-.809 2.709 0 1.585.752 3.063 2 3.999v.001 1.184c-1.161.414-2 1.514-2 2.816v1.697c-4.123 1.157-7.79 3.711-10.282 7.26-.765-.863-1.265-1.928-1.438-3.089 4.542-2.028 7.72-6.579 7.72-11.866v-16.002c0-2.757-2.243-5-5-5-1.654 0-3 1.346-3 3s1.346 3 3 3h1v-2h-1c-.551 0-1-.449-1-1s.449-1 1-1c1.654 0 3 1.346 3 3s-1.346 3-3 3h-4.605c-3.526 0-6.395-2.869-6.395-6.395 0-1.922.955-3.707 2.555-4.773l-1.109-1.664c-2.158 1.438-3.446 3.845-3.446 6.437 0 1.223.269 2.383.741 3.432-1.552 1.971-3.755 3.285-6.234 3.698-1.453.242-2.507 1.487-2.507 2.959v9.306c0 5.288 3.178 9.84 7.72 11.869-.38 2.559-2.339 4.578-4.89 5.028l-5.11.902c-1.302.23-2.496.727-3.54 1.42.22-.704.643-1.337 1.264-1.802zm6.556-17.417v-9.306c0-.491.352-.906.836-.986 2.73-.455 5.181-1.822 7.005-3.871 1.539 1.925 3.903 3.163 6.554 3.163h4.605c1.13 0 2.162-.391 3-1.025v12.028c0 6.063-4.935 10.997-11 10.997s-11-4.935-11-11zm-10 27c0-3.57 2.552-6.611 6.067-7.231l5.111-.902c3.273-.578 5.797-3.101 6.435-6.33 1.082.293 2.214.463 3.387.463 1.168 0 2.296-.169 3.374-.46.313 1.59 1.089 3.031 2.241 4.157l-.781 1.303 1.164 1.94c1.841 3.068 4.522 5.492 7.642 7.06zm34-9c0-4.962 4.038-9 9-9s9 4.038 9 9-4.038 9-9 9-9-4.038-9-9zm23.288.911c-1.343 2.239-3.189 4.093-5.338 5.462 1.285-1.801 2.05-3.997 2.05-6.373s-.765-4.572-2.051-6.373c2.149 1.369 3.995 3.223 5.338 5.462l.547.911z"/><path d="m46 48.964c-1.654 0-3 1.346-3 3s1.346 3 3 3 3-1.346 3-3-1.346-3-3-3zm0 4c-.551 0-1-.449-1-1s.449-1 1-1 1 .449 1 1-.449 1-1 1z"/><path d="m29 36v-1h-10v1c0 2.757 2.243 5 5 5s5-2.243 5-5zm-7.829 1h5.657c-.413 1.164-1.525 2-2.829 2s-2.415-.836-2.828-2z"/><path d="m23 27h-2c0 1.103-.897 2-2 2s-2-.897-2-2h-2c0 2.206 1.794 4 4 4s4-1.794 4-4z"/><path d="m29 31c2.206 0 4-1.794 4-4h-2c0 1.103-.897 2-2 2s-2-.897-2-2h-2c0 2.206 1.794 4 4 4z"/></g></svg>